<?xml version="1.0" encoding="utf-8"?>
<!-- Generator: Adobe Illustrator 26.5.0, SVG Export Plug-In . SVG Version: 6.00 Build 0)  -->
<svg version="1.1" id="Capa_1" xmlns="http://www.w3.org/2000/svg" xmlns:xlink="http://www.w3.org/1999/xlink" x="0px" y="0px"
	 viewBox="0 0 468.9 114.9" style="enable-background:new 0 0 468.9 114.9;" xml:space="preserve">
<style type="text/css">
	.st0{fill-rule:evenodd;clip-rule:evenodd;fill:#FFFFFF;}
	.st1{fill:#FFFFFF;}
</style>
<path class="st0" d="M31.9,14c10.1,1.7,19.6,3.3,28.5,4.8c8.3,1.4,16,2.7,23.4,4c2.9,0.5,5.2,3.9,5.2,7.6c0,9,0,18.1,0,27.1
	s0,18.1,0,27c0,3.7-2.3,7-5.2,7.3c-7.3,0.9-15.2,1.7-23.4,2.7c-8.8,1.1-18.4,2.1-28.5,3.3c-4.4,0.5-8.1-2.9-8.1-7.6
	c0-11.5,0-23,0-34.5s0-23,0-34.5C23.8,16.6,27.5,13.4,31.9,14 M31.5,11.9c10.3,1.8,19.8,3.5,28.9,5.1c8.4,1.5,16.2,2.8,23.6,4.2
	c3.5,0.6,6.2,4.8,6.2,9.1c0,9,0,18.2,0,27.2s0,18.2,0,27.2c0,4.5-2.7,8.5-6.2,8.8c-7.4,1-15.3,1.9-23.6,2.9
	c-8.9,1.2-18.6,2.3-28.9,3.6c-5.3,0.7-9.8-3.5-9.8-9.2c0-11.7,0-23.4,0-35.2s0-23.4,0-35.2C21.7,14.8,26.1,10.9,31.5,11.9z
	 M60.4,44.5c2.9,0.2,5.3,1.7,7.2,4l0,0c1.7,2.2,2.8,5.2,2.8,8.6c0,3.3-1.1,6.2-2.8,8.4c-1.7,2.2-4.3,3.6-7.2,3.7s-5.6-1.3-7.6-3.5
	l0,0c-2-2.3-3.3-5.5-3.3-9c0-3.6,1.3-6.7,3.3-8.8C54.7,45.4,57.4,44.3,60.4,44.5z M60.4,51c2.7,0.1,4.9,2.8,4.9,5.9
	c0,3.1-2.1,5.7-4.9,5.7s-5.1-2.6-5.1-5.9C55.3,53.3,57.6,50.8,60.4,51z M80,80.5L80,80.5 M80,34L80,34 M60.4,37.8
	c3.1,0.3,5.9,1.7,8.3,3.6c2.4-2.7,4.8-5.3,7.1-8c1.2-1.4,3.1-1.2,4.4,0.5c0,0,0,0,0.1,0.1v0.1c1.2,1.7,1.2,4.1,0,5.4
	c-2.2,2.6-4.5,5.3-6.8,8.1c1.4,2.8,2.2,6.1,2.2,9.6s-0.8,6.7-2.2,9.5c2.3,2.8,4.6,5.6,6.8,8.4c1.2,1.5,1.2,3.9,0,5.4l0,0
	c0,0,0,0,0,0.1c0,0,0,0,0,0.1l0,0c-1.2,1.6-3.1,1.7-4.4,0.3c-2.3-2.7-4.7-5.5-7.1-8.4c-2.3,1.8-5.2,3-8.3,3.2
	c-3.1,0.1-6.2-0.8-8.8-2.6c-2.9,3-5.7,6.4-8.6,9.8c-1.6,1.8-4.2,2-5.8,0.4c-1.7-1.7-1.7-4.6,0-6.5c3-3.4,5.9-6.8,8.8-10
	c-1.7-3.1-2.7-6.7-2.7-10.7c0-3.9,1-7.6,2.7-10.5c-2.9-3.4-5.8-6.9-8.8-10.5c-1.7-1.9-1.7-4.9,0-6.5s4.3-1.3,5.8,0.7
	c2.9,3.6,5.7,7.1,8.6,10.5C54.1,38.3,57.1,37.6,60.4,37.8z M31.2,0.4c5.2,1.2,10.4,2.2,15.3,3.3c4.8,1,9.3,2,13.8,2.9
	c4.3,0.9,8.5,1.8,12.4,2.7c3.9,0.9,7.7,1.7,11.4,2.4c7.1,1.6,12.7,10.2,12.7,19.1c0,4.5,0,8.9,0,13.3c0,4.5,0,8.9,0,13.3
	c0,4.5,0,8.9,0,13.3c0,4.5,0,8.9,0,13.3c0,9-5.5,17.3-12.6,18.5c-3.7,0.6-7.5,1.3-11.4,1.8c-4,0.7-8.2,1.4-12.4,2
	c-4.5,0.7-9,1.5-13.8,2.2c-5,0.8-10,1.7-15.4,2.5c-11.4,2-21.3-6.5-21.3-19c0-6.1,0-12.2,0-18.5c0-6.1,0-12.3,0-18.5s0-12.2,0-18.5
	c0-6.1,0-12.3,0-18.5C9.9,6.2,19.8-2,31.2,0.4z"/>
<g>
	<path class="st1" d="M119,84.9V29.2h10.5v55.7H119z M127.9,59.2v-6.5h11.7c2.6,0,4.4-0.7,5.6-2s1.8-3.2,1.8-5.4s-0.6-4.1-1.8-5.4
		s-3.1-2-5.6-2h-11.7v-8.6h10.8c6.2,0,10.9,1.3,14.2,3.9c3.2,2.6,4.9,6.3,4.9,11.2v1.1c0,3.4-0.8,6.1-2.4,8.2
		c-1.6,2-3.9,3.5-6.7,4.4c-2.9,0.9-6.1,1.3-9.9,1.3H127.9z M127.9,84.9v-8.6h13.8c2.5,0,4.4-0.7,5.7-2.1c1.3-1.4,2-3.3,2-5.7
		s-0.7-4.3-2-5.6c-1.3-1.3-3.2-2-5.7-2h-13.8v-6.5h13c3.7,0,6.9,0.4,9.8,1.3c2.9,0.9,5.1,2.3,6.8,4.4c1.6,2.1,2.4,4.8,2.4,8.3v1.1
		c0,3.3-0.7,6-2.1,8.3c-1.4,2.3-3.6,4-6.4,5.3c-2.8,1.2-6.3,1.8-10.5,1.8H127.9z"/>
	<path class="st1" d="M189.3,85.9c-3.6,0-6.8-0.6-9.6-1.7c-2.8-1.2-5.1-2.7-7-4.7c-1.9-2-3.3-4.2-4.3-6.7c-1-2.5-1.5-5.1-1.5-7.8
		v-1.6c0-2.8,0.5-5.5,1.5-8c1-2.5,2.5-4.8,4.4-6.8c1.9-2,4.3-3.5,7-4.7c2.8-1.1,5.9-1.7,9.3-1.7c3.5,0,6.6,0.6,9.3,1.7
		c2.8,1.1,5.1,2.7,7,4.7c1.9,2,3.4,4.2,4.4,6.8c1,2.5,1.5,5.2,1.5,8v1.6c0,2.7-0.5,5.3-1.5,7.8c-1,2.5-2.4,4.8-4.3,6.7
		c-1.9,2-4.2,3.5-7,4.7C196,85.3,192.8,85.9,189.3,85.9z M189.3,77c2.6,0,4.7-0.6,6.5-1.7c1.8-1.1,3.1-2.7,4-4.6
		c0.9-1.9,1.4-4.1,1.4-6.6c0-2.5-0.5-4.7-1.4-6.7c-0.9-1.9-2.3-3.5-4.1-4.6c-1.8-1.1-3.9-1.7-6.4-1.7c-2.5,0-4.6,0.6-6.4,1.7
		c-1.8,1.1-3.1,2.7-4.1,4.6c-1,1.9-1.4,4.2-1.4,6.7c0,2.5,0.5,4.7,1.4,6.6c0.9,1.9,2.3,3.5,4,4.6C184.5,76.4,186.7,77,189.3,77z"/>
	<path class="st1" d="M220.7,84.5V43.6h8.3v17.5h-0.8c0-4.2,0.6-7.6,1.7-10.4c1.1-2.8,2.7-4.9,4.9-6.3c2.2-1.4,4.9-2.1,8.2-2.1h0.5
		c4.9,0,8.6,1.6,11.1,4.7c2.5,3.1,3.8,7.8,3.8,14v23.4h-10.5V60.2c0-2.5-0.7-4.5-2.1-6.1c-1.4-1.6-3.4-2.3-5.9-2.3
		c-2.6,0-4.6,0.8-6.2,2.4c-1.6,1.6-2.4,3.7-2.4,6.4v24H220.7z"/>
	<path class="st1" d="M289.1,85.9c-3.6,0-6.8-0.6-9.6-1.7c-2.8-1.2-5.1-2.7-7-4.7c-1.9-2-3.3-4.2-4.3-6.7c-1-2.5-1.5-5.1-1.5-7.8
		v-1.6c0-2.8,0.5-5.5,1.5-8c1-2.5,2.5-4.8,4.4-6.8c1.9-2,4.3-3.5,7-4.7c2.8-1.1,5.9-1.7,9.3-1.7s6.6,0.6,9.3,1.7
		c2.8,1.1,5.1,2.7,7,4.7c1.9,2,3.4,4.2,4.4,6.8c1,2.5,1.5,5.2,1.5,8v1.6c0,2.7-0.5,5.3-1.5,7.8c-1,2.5-2.4,4.8-4.3,6.7
		c-1.9,2-4.2,3.5-7,4.7C295.8,85.3,292.7,85.9,289.1,85.9z M289.1,77c2.6,0,4.7-0.6,6.5-1.7c1.8-1.1,3.1-2.7,4-4.6
		c0.9-1.9,1.4-4.1,1.4-6.6c0-2.5-0.5-4.7-1.4-6.7c-0.9-1.9-2.3-3.5-4.1-4.6c-1.8-1.1-3.9-1.7-6.4-1.7c-2.5,0-4.6,0.6-6.4,1.7
		c-1.8,1.1-3.1,2.7-4.1,4.6c-1,1.9-1.4,4.2-1.4,6.7c0,2.5,0.5,4.7,1.4,6.6c0.9,1.9,2.3,3.5,4,4.6C284.4,76.4,286.6,77,289.1,77z"/>
	<path class="st1" d="M320.6,84.5V43.6h8.3v17.3h-0.2c0-5.9,1.3-10.3,3.8-13.3c2.5-3,6.2-4.5,11.1-4.5h1.5v9.1h-2.9
		c-3.5,0-6.2,0.9-8.2,2.8c-1.9,1.9-2.9,4.6-2.9,8.2v21.3H320.6z"/>
	<path class="st1" d="M365.9,85.8c-4.7,0-8.4-1.6-10.9-4.7c-2.6-3.1-3.9-7.7-3.9-13.8V43.5h10.5v24.6c0,2.5,0.7,4.5,2.1,6
		c1.4,1.5,3.3,2.2,5.7,2.2c2.4,0,4.4-0.8,5.9-2.3c1.5-1.6,2.3-3.7,2.3-6.3V43.5H388v40.9h-8.3V67.1h0.8c0,4.1-0.5,7.6-1.6,10.3
		c-1.1,2.8-2.6,4.8-4.7,6.2c-2.1,1.4-4.7,2.1-7.9,2.1H365.9z"/>
	<path class="st1" d="M400,84.5V43.6h8.3v17.5h-0.8c0-4.1,0.5-7.6,1.6-10.3c1.1-2.8,2.6-4.9,4.7-6.3c2.1-1.4,4.7-2.1,7.8-2.1h0.5
		c3.2,0,5.8,0.7,7.9,2.1c2.1,1.4,3.6,3.5,4.7,6.3c1,2.8,1.5,6.2,1.5,10.3h-2.6c0-4.1,0.5-7.6,1.6-10.3c1.1-2.8,2.7-4.9,4.7-6.3
		c2.1-1.4,4.7-2.1,7.8-2.1h0.5c3.2,0,5.8,0.7,7.9,2.1c2.1,1.4,3.7,3.5,4.8,6.3c1.1,2.8,1.6,6.2,1.6,10.3v23.3h-10.5V60.2
		c0-2.6-0.7-4.6-2-6.1c-1.3-1.5-3.2-2.3-5.6-2.3c-2.4,0-4.3,0.8-5.8,2.4c-1.5,1.6-2.2,3.7-2.2,6.4v24H426V60.2c0-2.6-0.7-4.6-2-6.1
		c-1.3-1.5-3.2-2.3-5.6-2.3s-4.3,0.8-5.8,2.4c-1.5,1.6-2.2,3.7-2.2,6.4v24H400z"/>
</g>
</svg>
