<?xml version="1.0" encoding="utf-8"?>
<!-- Generator: Adobe Illustrator 26.5.0, SVG Export Plug-In . SVG Version: 6.00 Build 0)  -->
<svg version="1.1" id="Capa_1" xmlns="http://www.w3.org/2000/svg" xmlns:xlink="http://www.w3.org/1999/xlink" x="0px" y="0px"
	 viewBox="0 0 679.9 114.9" style="enable-background:new 0 0 679.9 114.9;" xml:space="preserve">
<style type="text/css">
	.st0{fill-rule:evenodd;clip-rule:evenodd;fill:#FFFFFF;}
	.st1{fill:#FFFFFF;}
</style>
<path class="st0" d="M31.9,14c10.1,1.7,19.6,3.3,28.5,4.8c8.3,1.4,16,2.7,23.4,4c2.9,0.5,5.2,3.9,5.2,7.6c0,9,0,18.1,0,27.1
	s0,18.1,0,27c0,3.7-2.3,7-5.2,7.3c-7.3,0.9-15.2,1.7-23.4,2.7c-8.8,1.1-18.4,2.1-28.5,3.3c-4.4,0.5-8.1-2.9-8.1-7.6
	c0-11.5,0-23,0-34.5s0-23,0-34.5C23.8,16.6,27.5,13.4,31.9,14 M31.5,11.9c10.3,1.8,19.8,3.5,28.9,5.1c8.4,1.5,16.2,2.8,23.6,4.2
	c3.5,0.6,6.2,4.8,6.2,9.1c0,9,0,18.2,0,27.2s0,18.2,0,27.2c0,4.5-2.7,8.5-6.2,8.8c-7.4,1-15.3,1.9-23.6,2.9
	c-8.9,1.2-18.6,2.3-28.9,3.6c-5.3,0.7-9.8-3.5-9.8-9.2c0-11.7,0-23.4,0-35.2s0-23.4,0-35.2C21.7,14.8,26.1,10.9,31.5,11.9z
	 M60.4,44.5c2.9,0.2,5.3,1.7,7.2,4l0,0c1.7,2.2,2.8,5.2,2.8,8.6c0,3.3-1.1,6.2-2.8,8.4c-1.7,2.2-4.3,3.6-7.2,3.7s-5.6-1.3-7.6-3.5
	l0,0c-2-2.3-3.3-5.5-3.3-9c0-3.6,1.3-6.7,3.3-8.8C54.7,45.4,57.4,44.3,60.4,44.5z M60.4,51c2.7,0.1,4.9,2.8,4.9,5.9
	c0,3.1-2.1,5.7-4.9,5.7s-5.1-2.6-5.1-5.9C55.3,53.3,57.6,50.8,60.4,51z M80,80.5L80,80.5 M80,34L80,34 M60.4,37.8
	c3.1,0.3,5.9,1.7,8.3,3.6c2.4-2.7,4.8-5.3,7.1-8c1.2-1.4,3.1-1.2,4.4,0.5c0,0,0,0,0.1,0.1v0.1c1.2,1.7,1.2,4.1,0,5.4
	c-2.2,2.6-4.5,5.3-6.8,8.1c1.4,2.8,2.2,6.1,2.2,9.6s-0.8,6.7-2.2,9.5c2.3,2.8,4.6,5.6,6.8,8.4c1.2,1.5,1.2,3.9,0,5.4l0,0
	c0,0,0,0,0,0.1c0,0,0,0,0,0.1l0,0c-1.2,1.6-3.1,1.7-4.4,0.3c-2.3-2.7-4.7-5.5-7.1-8.4c-2.3,1.8-5.2,3-8.3,3.2
	c-3.1,0.1-6.2-0.8-8.8-2.6c-2.9,3-5.7,6.4-8.6,9.8c-1.6,1.8-4.2,2-5.8,0.4c-1.7-1.7-1.7-4.6,0-6.5c3-3.4,5.9-6.8,8.8-10
	c-1.7-3.1-2.7-6.7-2.7-10.7c0-3.9,1-7.6,2.7-10.5c-2.9-3.4-5.8-6.9-8.8-10.5c-1.7-1.9-1.7-4.9,0-6.5s4.3-1.3,5.8,0.7
	c2.9,3.6,5.7,7.1,8.6,10.5C54.1,38.3,57.1,37.6,60.4,37.8z M31.2,0.4c5.2,1.2,10.4,2.2,15.3,3.3c4.8,1,9.3,2,13.8,2.9
	c4.3,0.9,8.5,1.8,12.4,2.7c3.9,0.9,7.7,1.7,11.4,2.4c7.1,1.6,12.7,10.2,12.7,19.1c0,4.5,0,8.9,0,13.3c0,4.5,0,8.9,0,13.3
	c0,4.5,0,8.9,0,13.3c0,4.5,0,8.9,0,13.3c0,9-5.5,17.3-12.6,18.5c-3.7,0.6-7.5,1.3-11.4,1.8c-4,0.7-8.2,1.4-12.4,2
	c-4.5,0.7-9,1.5-13.8,2.2c-5,0.8-10,1.7-15.4,2.5c-11.4,2-21.3-6.5-21.3-19c0-6.1,0-12.2,0-18.5c0-6.1,0-12.3,0-18.5s0-12.2,0-18.5
	c0-6.1,0-12.3,0-18.5C9.9,6.2,19.8-2,31.2,0.4z"/>
<g>
	<path class="st1" d="M113.7,84.9V30.1H124v54.8H113.7z M122.5,59.6v-6.4H134c2.5,0,4.4-0.7,5.6-2s1.8-3.1,1.8-5.3
		c0-2.2-0.6-4-1.8-5.3s-3-2-5.6-2h-11.5v-8.4h10.6c6.1,0,10.8,1.3,13.9,3.8c3.2,2.6,4.8,6.2,4.8,11v1c0,3.4-0.8,6-2.4,8
		c-1.6,2-3.8,3.4-6.6,4.3c-2.8,0.9-6,1.3-9.7,1.3H122.5z M122.5,84.9v-8.4H136c2.5,0,4.3-0.7,5.6-2c1.3-1.4,1.9-3.2,1.9-5.6
		c0-2.4-0.6-4.2-1.9-5.5c-1.3-1.3-3.2-2-5.6-2h-13.5v-6.4h12.8c3.6,0,6.8,0.4,9.7,1.3c2.8,0.9,5.1,2.3,6.7,4.3
		c1.6,2,2.4,4.7,2.4,8.1v1c0,3.2-0.7,5.9-2.1,8.2c-1.4,2.2-3.5,4-6.3,5.2c-2.8,1.2-6.2,1.8-10.3,1.8H122.5z"/>
	<path class="st1" d="M179.5,85.9c-3.6,0-6.7-0.6-9.4-1.7c-2.7-1.1-5-2.7-6.9-4.6c-1.9-1.9-3.3-4.2-4.3-6.6c-1-2.5-1.4-5-1.4-7.7
		v-1.6c0-2.8,0.5-5.4,1.5-7.9c1-2.5,2.5-4.7,4.4-6.7c1.9-1.9,4.2-3.5,6.9-4.6c2.7-1.1,5.8-1.7,9.2-1.7c3.4,0,6.5,0.6,9.2,1.7
		c2.7,1.1,5,2.6,6.9,4.6c1.9,1.9,3.3,4.2,4.3,6.7c1,2.5,1.5,5.1,1.5,7.9v1.6c0,2.7-0.5,5.2-1.4,7.7c-1,2.5-2.4,4.7-4.3,6.6
		c-1.9,1.9-4.2,3.5-6.9,4.6C186.1,85.3,183,85.9,179.5,85.9z M179.5,77.1c2.5,0,4.6-0.6,6.4-1.7c1.7-1.1,3-2.6,3.9-4.5
		c0.9-1.9,1.3-4.1,1.3-6.5c0-2.5-0.5-4.6-1.4-6.5c-0.9-1.9-2.2-3.4-4-4.5c-1.8-1.1-3.8-1.7-6.3-1.7c-2.4,0-4.5,0.6-6.3,1.7
		c-1.8,1.1-3.1,2.6-4,4.5c-0.9,1.9-1.4,4.1-1.4,6.5c0,2.4,0.5,4.6,1.4,6.5c0.9,1.9,2.2,3.4,4,4.5C174.8,76.5,176.9,77.1,179.5,77.1z
		"/>
	<path class="st1" d="M207.1,84.5V44.3h8.1v17.2h-0.7c0-4.1,0.5-7.5,1.6-10.2c1.1-2.7,2.7-4.8,4.8-6.2c2.1-1.4,4.8-2.1,8-2.1h0.4
		c4.8,0,8.4,1.5,10.9,4.6c2.5,3.1,3.7,7.7,3.7,13.8v23h-10.3V60.6c0-2.5-0.7-4.5-2.1-6c-1.4-1.5-3.3-2.3-5.8-2.3
		c-2.5,0-4.6,0.8-6.1,2.3c-1.6,1.6-2.3,3.6-2.3,6.3v23.6H207.1z"/>
	<path class="st1" d="M271,85.9c-3.6,0-6.7-0.6-9.4-1.7c-2.7-1.1-5-2.7-6.9-4.6c-1.9-1.9-3.3-4.2-4.3-6.6c-1-2.5-1.4-5-1.4-7.7v-1.6
		c0-2.8,0.5-5.4,1.5-7.9c1-2.5,2.5-4.7,4.4-6.7c1.9-1.9,4.2-3.5,6.9-4.6c2.7-1.1,5.8-1.7,9.2-1.7s6.5,0.6,9.2,1.7
		c2.7,1.1,5,2.6,6.9,4.6c1.9,1.9,3.3,4.2,4.3,6.7c1,2.5,1.5,5.1,1.5,7.9v1.6c0,2.7-0.5,5.2-1.4,7.7c-1,2.5-2.4,4.7-4.3,6.6
		c-1.9,1.9-4.2,3.5-6.9,4.6C277.6,85.3,274.5,85.9,271,85.9z M271,77.1c2.5,0,4.6-0.6,6.4-1.7c1.7-1.1,3-2.6,3.9-4.5
		c0.9-1.9,1.3-4.1,1.3-6.5c0-2.5-0.5-4.6-1.4-6.5c-0.9-1.9-2.2-3.4-4-4.5c-1.8-1.1-3.8-1.7-6.3-1.7c-2.4,0-4.5,0.6-6.3,1.7
		c-1.8,1.1-3.1,2.6-4,4.5c-0.9,1.9-1.4,4.1-1.4,6.5c0,2.4,0.5,4.6,1.4,6.5c0.9,1.9,2.2,3.4,4,4.5C266.4,76.5,268.5,77.1,271,77.1z"
		/>
	<path class="st1" d="M298.6,84.5V44.3h8.1v17h-0.2c0-5.8,1.2-10.1,3.7-13.1c2.5-3,6.1-4.4,10.9-4.4h1.5v9h-2.8
		c-3.5,0-6.1,0.9-8,2.8c-1.9,1.9-2.8,4.5-2.8,8v20.9H298.6z"/>
	<path class="st1" d="M339.8,85.7c-4.6,0-8.2-1.5-10.8-4.6c-2.5-3.1-3.8-7.6-3.8-13.6V44.2h10.3v24.2c0,2.5,0.7,4.4,2.1,5.9
		c1.4,1.5,3.3,2.2,5.6,2.2c2.4,0,4.3-0.8,5.8-2.3c1.5-1.5,2.3-3.6,2.3-6.2V44.2h10.3v40.3h-8.1V67.4h0.8c0,4-0.5,7.4-1.6,10.1
		c-1,2.7-2.6,4.8-4.7,6.1c-2.1,1.4-4.7,2.1-7.8,2.1H339.8z"/>
	<path class="st1" d="M370.1,84.5V44.3h8.1v17.2h-0.7c0-4,0.5-7.4,1.6-10.2c1-2.7,2.6-4.8,4.6-6.2c2-1.4,4.6-2.1,7.7-2.1h0.4
		c3.1,0,5.7,0.7,7.7,2.1c2,1.4,3.6,3.5,4.6,6.2c1,2.7,1.5,6.1,1.5,10.2H403c0-4,0.5-7.4,1.6-10.2c1.1-2.7,2.6-4.8,4.7-6.2
		c2-1.4,4.6-2.1,7.7-2.1h0.4c3.1,0,5.7,0.7,7.8,2.1c2.1,1.4,3.6,3.5,4.7,6.2c1.1,2.7,1.6,6.1,1.6,10.2v22.9h-10.3V60.6
		c0-2.5-0.6-4.5-1.9-6c-1.3-1.5-3.1-2.3-5.5-2.3s-4.3,0.8-5.7,2.3c-1.4,1.6-2.1,3.6-2.1,6.3v23.6h-10.3V60.6c0-2.5-0.6-4.5-1.9-6
		c-1.3-1.5-3.1-2.3-5.5-2.3c-2.4,0-4.3,0.8-5.7,2.3c-1.4,1.6-2.1,3.6-2.1,6.3v23.6H370.1z"/>
	<path class="st1" d="M477.8,85.9c-4.6,0-8.7-0.8-12.2-2.3c-3.5-1.6-6.5-3.7-8.9-6.3c-2.4-2.6-4.2-5.6-5.4-9
		c-1.2-3.3-1.8-6.8-1.8-10.4v-1.6c0-3.4,0.6-6.7,1.8-10c1.2-3.3,2.9-6.2,5.2-8.8c2.3-2.6,5.1-4.7,8.5-6.3c3.4-1.6,7.3-2.3,11.7-2.3
		c4.7,0,8.9,0.9,12.6,2.6c3.7,1.8,6.6,4.2,8.8,7.3c2.2,3.1,3.5,6.8,3.9,10.9h-10.6c-0.3-2.3-1.2-4.3-2.6-6c-1.4-1.7-3.1-2.9-5.2-3.8
		c-2.1-0.9-4.4-1.3-6.9-1.3c-2.5,0-4.8,0.4-6.8,1.3c-2,0.9-3.8,2.1-5.2,3.8c-1.4,1.6-2.5,3.6-3.3,5.8c-0.8,2.3-1.1,4.8-1.1,7.5
		c0,3,0.4,5.7,1.3,8.1c0.8,2.4,2,4.4,3.6,6c1.5,1.7,3.4,2.9,5.5,3.8c2.2,0.9,4.6,1.3,7.3,1.3c3.6,0,6.8-0.8,9.5-2.3
		c2.7-1.5,4.7-3.5,5.9-5.9l-1.8,8.5V62.8h9.7v12c-2.3,3.5-5.5,6.2-9.5,8.2S482.9,85.9,477.8,85.9z M476.1,64.9V57h29.5v7.8H476.1z"
		/>
	<path class="st1" d="M510,84.5V44.3h8.1v17h-0.2c0-5.8,1.2-10.1,3.7-13.1c2.5-3,6.1-4.4,10.9-4.4h1.5v9h-2.8c-3.5,0-6.1,0.9-8,2.8
		c-1.9,1.9-2.8,4.5-2.8,8v20.9H510z"/>
	<path class="st1" d="M556.6,85.9c-3.6,0-6.7-0.6-9.4-1.7c-2.7-1.1-5-2.7-6.9-4.6c-1.9-1.9-3.3-4.2-4.3-6.6c-1-2.5-1.4-5-1.4-7.7
		v-1.6c0-2.8,0.5-5.4,1.5-7.9c1-2.5,2.5-4.7,4.4-6.7c1.9-1.9,4.2-3.5,6.9-4.6c2.7-1.1,5.8-1.7,9.2-1.7s6.5,0.6,9.2,1.7
		c2.7,1.1,5,2.6,6.9,4.6c1.9,1.9,3.3,4.2,4.3,6.7c1,2.5,1.5,5.1,1.5,7.9v1.6c0,2.7-0.5,5.2-1.4,7.7c-1,2.5-2.4,4.7-4.3,6.6
		c-1.9,1.9-4.2,3.5-6.9,4.6C563.2,85.3,560.1,85.9,556.6,85.9z M556.6,77.1c2.5,0,4.6-0.6,6.4-1.7c1.7-1.1,3-2.6,3.9-4.5
		c0.9-1.9,1.3-4.1,1.3-6.5c0-2.5-0.5-4.6-1.4-6.5c-0.9-1.9-2.2-3.4-4-4.5c-1.8-1.1-3.8-1.7-6.3-1.7c-2.4,0-4.5,0.6-6.3,1.7
		c-1.8,1.1-3.1,2.6-4,4.5c-0.9,1.9-1.4,4.1-1.4,6.5c0,2.4,0.5,4.6,1.4,6.5c0.9,1.9,2.2,3.4,4,4.5C551.9,76.5,554,77.1,556.6,77.1z"
		/>
	<path class="st1" d="M597.9,85.7c-4.6,0-8.2-1.5-10.8-4.6c-2.5-3.1-3.8-7.6-3.8-13.6V44.2h10.3v24.2c0,2.5,0.7,4.4,2.1,5.9
		c1.4,1.5,3.3,2.2,5.6,2.2c2.4,0,4.3-0.8,5.8-2.3c1.5-1.5,2.3-3.6,2.3-6.2V44.2h10.3v40.3h-8.1V67.4h0.8c0,4-0.5,7.4-1.6,10.1
		c-1,2.7-2.6,4.8-4.7,6.1c-2.1,1.4-4.7,2.1-7.8,2.1H597.9z"/>
	<path class="st1" d="M628.1,99.3v-55h8.1v17.3l-1.3-0.1c0.2-4.1,1-7.5,2.6-10.3c1.5-2.8,3.5-4.8,6-6.2c2.5-1.4,5.3-2,8.4-2
		c2.9,0,5.4,0.5,7.7,1.6c2.3,1,4.3,2.5,5.9,4.4c1.7,1.9,2.9,4.1,3.8,6.5c0.9,2.5,1.3,5.2,1.3,8v1.6c0,2.9-0.4,5.6-1.3,8.1
		c-0.9,2.5-2.1,4.7-3.8,6.6c-1.7,1.9-3.6,3.4-6,4.4c-2.3,1.1-4.9,1.6-7.8,1.6c-3,0-5.8-0.6-8.3-1.9c-2.5-1.3-4.5-3.2-6-5.8
		c-1.5-2.6-2.4-6.1-2.6-10.2l3.3,5v26.5H628.1z M649.4,77.2c2.2,0,4.2-0.5,5.8-1.6c1.7-1.1,2.9-2.6,3.9-4.6c0.9-1.9,1.4-4.2,1.4-6.6
		c0-2.6-0.5-4.8-1.4-6.7c-0.9-1.9-2.2-3.3-3.9-4.4c-1.7-1.1-3.6-1.6-5.8-1.6c-2,0-3.9,0.4-5.6,1.3c-1.7,0.9-3.1,2.2-4.1,3.9
		c-1.1,1.7-1.6,3.8-1.6,6.2v3c0,2.3,0.5,4.3,1.6,5.9c1.1,1.6,2.5,2.9,4.2,3.8C645.7,76.7,647.5,77.2,649.4,77.2z"/>
</g>
</svg>
