<?xml version="1.0" encoding="utf-8"?>
<!-- Generator: Adobe Illustrator 26.5.0, SVG Export Plug-In . SVG Version: 6.00 Build 0)  -->
<svg version="1.1" id="Capa_1" xmlns="http://www.w3.org/2000/svg" xmlns:xlink="http://www.w3.org/1999/xlink" x="0px" y="0px"
	 viewBox="0 0 628.7 114.9" style="enable-background:new 0 0 628.7 114.9;" xml:space="preserve">
<style type="text/css">
	.st0{fill-rule:evenodd;clip-rule:evenodd;}
</style>
<path class="st0" d="M119.3,28.8h-7.9v57.6h9.5V61.5h22.3v-8.2h-22.3V37h23.5v-8.2h-23.5H119.3z M155.2,37.9c1.9,0,3.4-0.5,4.3-1.5
	c0.9-1,1.4-2.3,1.4-3.9c0-1.5-0.5-2.8-1.4-3.8c-0.9-1-2.4-1.5-4.3-1.5c-1.9,0-3.3,0.5-4.2,1.5c-0.9,1-1.4,2.3-1.4,3.8
	c0,1.6,0.5,2.9,1.4,3.9C151.9,37.4,153.3,37.9,155.2,37.9z M146,43.8v7.1h6.2v35.4h9.2V50.9v-7.1h-9.2H146z M193.5,42.6h-0.4
	c-3.4,0-6.3,0.7-8.6,2.2c-2.3,1.5-4,3.7-5.2,6.6c-0.3,0.8-0.6,1.8-0.8,2.7V43.8h-7.3v42.5h9.2V61.2c0-3.1,0.9-5.6,2.8-7.5
	c1.8-1.9,4.3-2.8,7.3-2.8c2.9,0,5.3,0.9,6.9,2.7c1.7,1.8,2.5,4.2,2.5,7.1v25.6h9.2V62.1c0-6.4-1.3-11.2-3.9-14.5
	C202.7,44.2,198.8,42.6,193.5,42.6z M242.6,44.9c-2.8-1.1-6.4-1.7-10.7-1.7c-1.4,0-2.8,0-4.3,0.1c-1.5,0.1-2.9,0.1-4.3,0.2
	c-1.4,0.1-2.7,0.2-3.8,0.3v8c1.3-0.1,2.8-0.2,4.5-0.3c1.7-0.1,3.5-0.1,5.2-0.2c1.8,0,3.4-0.1,4.9-0.1c2.7,0,4.7,0.7,6.1,2
	c1.4,1.4,2,3.4,2,6v0.8h-9.7c-3.7,0-6.9,0.5-9.6,1.5c-2.7,1-4.7,2.5-6.2,4.5c-1.4,2-2.2,4.5-2.2,7.6c0,2.9,0.6,5.4,1.9,7.5
	c1.3,2.1,3,3.7,5.4,4.7c2.3,1.1,5,1.6,8.1,1.6c3,0,5.5-0.5,7.6-1.6c2.1-1.1,3.7-2.6,4.9-4.6c0.5-0.9,1-1.9,1.3-3v8.2h7.3V59.8
	c0-4-0.7-7.2-2.1-9.6C247.5,47.8,245.4,46,242.6,44.9z M236.9,79.6c-1.5,0.6-3,0.9-4.7,0.9c-2.8,0-4.9-0.6-6.4-1.9
	c-1.5-1.3-2.2-3-2.2-5.2c0-2.2,0.7-3.9,2.2-5.2c1.5-1.3,3.6-2,6.4-2h9.9v4.4c-0.1,2.6-0.6,4.6-1.6,6C239.6,78,238.4,79,236.9,79.6z
	 M282.2,42.6h-0.4c-3.4,0-6.3,0.7-8.6,2.2c-2.3,1.5-4,3.7-5.2,6.6c-0.3,0.8-0.6,1.8-0.8,2.7V43.8h-7.3v42.5h9.2V61.2
	c0-3.1,0.9-5.6,2.8-7.5c1.8-1.9,4.3-2.8,7.3-2.8c2.9,0,5.3,0.9,6.9,2.7c1.7,1.8,2.5,4.2,2.5,7.1v25.6h9.2V62.1
	c0-6.4-1.3-11.2-3.9-14.5C291.4,44.2,287.5,42.6,282.2,42.6z M334.5,75.4c-0.9,1.3-2.2,2.3-3.7,3.1c-1.6,0.8-3.4,1.1-5.6,1.1
	c-2.8,0-5.1-0.6-6.9-1.9c-1.8-1.3-3.2-3-4-5.2c-0.9-2.2-1.3-4.7-1.3-7.4c0-2.8,0.4-5.3,1.3-7.5c0.9-2.2,2.2-3.9,4-5.2
	c1.8-1.3,4-1.9,6.8-1.9c3.2,0,5.6,0.8,7.5,2.4c1.8,1.6,2.9,3.6,3.2,6h8.9c-0.2-3.3-1.2-6.2-2.9-8.7c-1.7-2.5-4-4.4-6.9-5.8
	c-2.9-1.4-6.1-2-9.7-2c-3.6,0-6.7,0.6-9.3,1.9c-2.7,1.2-4.9,2.9-6.7,5c-1.8,2.1-3.1,4.5-4,7.1c-0.9,2.6-1.3,5.3-1.3,8.1v1.4
	c0,2.7,0.4,5.3,1.3,7.9c0.9,2.6,2.2,5,3.9,7.1c1.8,2.1,4,3.8,6.7,5c2.7,1.2,5.9,1.9,9.5,1.9c3.7,0,7-0.7,9.9-2.1
	c2.9-1.4,5.3-3.3,7.1-5.8c1.8-2.5,2.8-5.5,2.9-8.9h-9C336,72.6,335.5,74.1,334.5,75.4z M346.6,43.8v7.1h6.2v35.4h9.2V50.9v-7.1h-9.2
	H346.6z M355.8,37.9c1.9,0,3.4-0.5,4.3-1.5c0.9-1,1.4-2.3,1.4-3.9c0-1.5-0.5-2.8-1.4-3.8c-0.9-1-2.4-1.5-4.3-1.5
	c-1.9,0-3.3,0.5-4.2,1.5c-0.9,1-1.4,2.3-1.4,3.8c0,1.6,0.5,2.9,1.4,3.9C352.5,37.4,353.9,37.9,355.8,37.9z M396.4,44.9
	c-2.8-1.1-6.4-1.7-10.7-1.7c-1.4,0-2.8,0-4.3,0.1c-1.5,0.1-2.9,0.1-4.3,0.2c-1.4,0.1-2.7,0.2-3.8,0.3v8c1.3-0.1,2.8-0.2,4.5-0.3
	c1.7-0.1,3.5-0.1,5.2-0.2c1.8,0,3.4-0.1,4.9-0.1c2.7,0,4.7,0.7,6.1,2c1.4,1.4,2,3.4,2,6v0.8h-9.7c-3.7,0-6.9,0.5-9.6,1.5
	c-2.7,1-4.7,2.5-6.2,4.5c-1.5,2-2.2,4.5-2.2,7.6c0,2.9,0.6,5.4,1.9,7.5c1.3,2.1,3,3.7,5.4,4.7c2.3,1.1,5,1.6,8.1,1.6
	c3,0,5.5-0.5,7.6-1.6c2.1-1.1,3.7-2.6,4.9-4.6c0.5-0.9,1-1.9,1.3-3v8.2h7.3V59.8c0-4-0.7-7.2-2.1-9.6
	C401.3,47.8,399.2,46,396.4,44.9z M390.7,79.6c-1.5,0.6-3,0.9-4.7,0.9c-2.8,0-4.9-0.6-6.4-1.9c-1.5-1.3-2.2-3-2.2-5.2
	c0-2.2,0.7-3.9,2.2-5.2c1.5-1.3,3.6-2,6.4-2h9.9v4.4c-0.1,2.6-0.6,4.6-1.6,6C393.4,78,392.2,79,390.7,79.6z M408.6,28.8v7.1h5.6
	v50.5h9.3V35.9v-7.1h-9.3H408.6z M537.7,43.8h-9.5l-8.8,15.5h-1.2l-9.4-15.5h-10.1l13.2,21.1L498.3,86l-20.7-57.3h-15.7l-20.2,57.6
	h9.5l5.6-16.2h26.1l5.8,16.2h9.5h0.3h9.2l10.5-16.6h1.1l11,16.6h10.1l-14.9-22.1L537.7,43.8z M459.6,61.9l8.6-25h2.9l8.9,25H459.6z
	 M573,45.4c-3-2-6.9-3-11.4-3c-3.5,0-6.6,0.6-9.3,1.9c-2.7,1.2-4.8,2.9-6.6,5c-1.7,2.1-3,4.4-3.9,7c-0.9,2.6-1.3,5.3-1.3,8.1v1.5
	c0,2.7,0.4,5.4,1.3,8c0.9,2.6,2.2,4.9,3.9,7c1.7,2.1,4,3.7,6.7,5c2.7,1.3,5.9,1.9,9.6,1.9c3.4,0,6.5-0.6,9.1-1.7
	c2.7-1.2,4.9-2.8,6.7-5c1.8-2.2,2.9-4.7,3.5-7.6h-8.6c-0.4,1.7-1.6,3.2-3.5,4.5c-1.9,1.3-4.3,1.9-7.3,1.9s-5.4-0.6-7.3-1.9
	c-1.9-1.3-3.3-3.1-4.2-5.3c-0.7-1.7-1.1-3.5-1.3-5.6h32.8v-3.7c0-3.7-0.8-7.1-2.3-10.3C578.3,50,576,47.4,573,45.4z M554.7,52.1
	c1.8-1.3,4.1-1.9,6.9-1.9c2.6,0,4.8,0.6,6.5,1.7c1.7,1.1,3,2.7,3.9,4.8c0.5,1.3,0.9,2.7,1.1,4.2h-23.6c0.2-1.3,0.6-2.5,1-3.6
	C551.5,55.1,552.8,53.4,554.7,52.1z M616.6,65.1c-2.8-2.1-6.6-3.5-11.4-4l-4.2-0.4c-2.4-0.3-4.1-0.8-5.1-1.7c-1.1-0.8-1.6-2-1.6-3.5
	c0-1.6,0.7-3,2.1-4c1.4-1.1,3.4-1.6,6-1.6c2.8,0,4.9,0.6,6.3,1.7c1.4,1.1,2.2,2.5,2.3,4.1h8.4c-0.1-4.3-1.7-7.6-4.8-9.8
	c-3.1-2.2-7.2-3.4-12.2-3.4c-3.3,0-6.1,0.5-8.6,1.6c-2.5,1-4.5,2.6-5.9,4.5c-1.4,1.9-2.1,4.3-2.1,7.2c0,3.6,1.3,6.4,3.8,8.5
	c2.5,2.1,6,3.4,10.4,3.9l4.2,0.4c2.9,0.3,5,0.9,6.3,1.9c1.2,0.9,1.9,2.2,1.9,3.7c0,1.7-0.8,3.2-2.5,4.3c-1.7,1.2-4,1.7-6.9,1.7
	c-3.5,0-6-0.7-7.5-2c-1.5-1.3-2.3-2.8-2.4-4.3h-8.5c0.2,4.3,1.8,7.6,5,10c3.2,2.4,7.6,3.6,13.4,3.6c3.6,0,6.7-0.6,9.4-1.7
	c2.7-1.1,4.8-2.7,6.3-4.8c1.5-2,2.3-4.4,2.3-7.2C620.8,70.2,619.4,67.2,616.6,65.1z"/>
<path class="st0" d="M25.6,14.4c10.4,1.8,20.2,3.4,29.3,4.9c8.5,1.4,16.5,2.8,24.1,4.1c3,0.5,5.3,4,5.3,7.8c0,9.3,0,18.6,0,27.9
	c0,9.3,0,18.6,0,27.8c0,3.8-2.4,7.2-5.3,7.5c-7.5,0.9-15.6,1.8-24.1,2.8c-9.1,1.1-18.9,2.2-29.3,3.4c-4.5,0.5-8.3-3-8.3-7.8
	c0-11.8,0-23.7,0-35.5c0-11.8,0-23.7,0-35.5C17.3,17,21.1,13.7,25.6,14.4 M25.2,12.2c10.6,1.9,20.4,3.6,29.7,5.2
	c8.6,1.5,16.7,2.9,24.3,4.3c3.6,0.6,6.4,4.9,6.4,9.4c0,9.3,0,18.7,0,28c0,9.3,0,18.7,0,28c0,4.6-2.8,8.7-6.4,9.1
	c-7.6,1-15.7,2-24.3,3c-9.2,1.2-19.1,2.4-29.7,3.7c-5.5,0.7-10.1-3.6-10.1-9.5c0-12,0-24.1,0-36.2s0-24.1,0-36.2
	C15.1,15.2,19.7,11.2,25.2,12.2z M54.9,45.7c3,0.2,5.5,1.8,7.4,4.1c0,0,0,0,0,0c1.8,2.3,2.9,5.4,2.9,8.8c0,3.4-1.1,6.4-2.9,8.6
	c-1.8,2.3-4.4,3.7-7.4,3.8c-3,0.1-5.8-1.3-7.8-3.6c0,0,0,0,0,0c-2.1-2.4-3.4-5.7-3.4-9.3c0-3.7,1.3-6.9,3.4-9.1
	C49.1,46.7,51.9,45.5,54.9,45.7z M54.9,52.4c2.8,0.1,5,2.9,5,6.1c0,3.2-2.2,5.9-5,5.9c-2.8,0-5.2-2.7-5.2-6.1
	C49.7,54.8,52.1,52.2,54.9,52.4z M75.1,82.8L75.1,82.8 M75.1,34.9L75.1,34.9 M54.9,38.9c3.2,0.3,6.1,1.7,8.5,3.7
	c2.5-2.8,4.9-5.5,7.3-8.2c1.2-1.4,3.2-1.2,4.5,0.5c0,0,0,0,0.1,0.1c0,0,0,0.1,0,0.1c1.2,1.7,1.2,4.2,0,5.6c-2.3,2.7-4.6,5.5-7,8.3
	c1.4,2.9,2.3,6.3,2.3,9.9c0,3.6-0.8,6.9-2.3,9.8c2.4,2.9,4.7,5.8,7,8.6c1.2,1.5,1.2,4,0,5.6c0,0,0,0,0,0c0,0,0,0,0,0.1
	c0,0,0,0,0,0.1c0,0,0,0,0,0c-1.2,1.6-3.2,1.7-4.5,0.3c-2.4-2.8-4.8-5.7-7.3-8.6c-2.4,1.9-5.3,3.1-8.5,3.3c-3.2,0.1-6.4-0.8-9.1-2.7
	C42.9,78.5,40,82,37,85.5c-1.6,1.9-4.3,2.1-6,0.4c-1.7-1.7-1.7-4.7,0-6.7c3.1-3.5,6.1-7,9.1-10.3c-1.8-3.2-2.8-6.9-2.8-11
	c0-4,1-7.8,2.8-10.8c-3-3.5-6-7.1-9.1-10.8c-1.7-2-1.7-5,0-6.7c1.7-1.6,4.4-1.3,6,0.7c3,3.7,5.9,7.3,8.8,10.8
	C48.5,39.4,51.6,38.6,54.9,38.9z M24.9,0.4c5.4,1.2,10.7,2.3,15.7,3.4c4.9,1,9.6,2.1,14.2,3c4.4,0.9,8.7,1.9,12.8,2.8
	c4,0.9,7.9,1.7,11.7,2.5c7.3,1.6,13.1,10.5,13.1,19.7c0,4.6,0,9.2,0,13.7c0,4.6,0,9.2,0,13.7c0,4.6,0,9.2,0,13.7c0,4.6,0,9.2,0,13.7
	c0,9.3-5.7,17.8-13,19c-3.8,0.6-7.7,1.3-11.7,1.9c-4.1,0.7-8.4,1.4-12.8,2.1c-4.6,0.7-9.3,1.5-14.2,2.3c-5.1,0.8-10.3,1.7-15.8,2.6
	C13.2,116.6,3,107.8,3,95c0-6.3,0-12.6,0-19c0-6.3,0-12.7,0-19c0-6.3,0-12.6,0-19c0-6.3,0-12.7,0-19C3,6.3,13.2-2.1,24.9,0.4z"/>
</svg>
