<?xml version="1.0" encoding="utf-8"?>
<!-- Generator: Adobe Illustrator 26.5.0, SVG Export Plug-In . SVG Version: 6.00 Build 0)  -->
<svg version="1.1" id="Capa_1" xmlns="http://www.w3.org/2000/svg" xmlns:xlink="http://www.w3.org/1999/xlink" x="0px" y="0px"
	 viewBox="0 0 440.2 150.6" style="enable-background:new 0 0 440.2 150.6;" xml:space="preserve">
<style type="text/css">
	.st0{fill-rule:evenodd;clip-rule:evenodd;}
</style>
<path class="st0" d="M37.5,24c12.6,2.1,24.4,4.1,35.5,6c10.3,1.7,19.9,3.4,29.2,5c3.6,0.6,6.5,4.9,6.5,9.5c0,11.2,0,22.6,0,33.8
	s0,22.6,0,33.7c0,4.6-2.9,8.7-6.5,9.1c-9.1,1.1-18.9,2.1-29.2,3.4c-11,1.4-22.9,2.6-35.5,4.1c-5.5,0.6-10.1-3.6-10.1-9.5
	c0-14.3,0-28.7,0-43s0-28.7,0-43C27.4,27.2,32,23.2,37.5,24 M37,21.4c12.8,2.2,24.7,4.4,36,6.4c10.5,1.9,20.2,3.5,29.4,5.2
	c4.4,0.7,7.7,6,7.7,11.3c0,11.2,0,22.7,0,33.9s0,22.7,0,33.9c0,5.6-3.4,10.6-7.7,11c-9.2,1.2-19.1,2.4-29.4,3.6
	c-11.1,1.5-23.2,2.9-36,4.5c-6.6,0.9-12.2-4.4-12.2-11.5c0-14.6,0-29.2,0-43.9s0-29.2,0-43.9C24.8,25,30.3,20.1,37,21.4z M73,62
	c3.6,0.2,6.6,2.1,9,5l0,0c2.1,2.7,3.5,6.5,3.5,10.7c0,4.1-1.4,7.7-3.5,10.5c-2.1,2.7-5.4,4.5-9,4.6s-7-1.6-9.5-4.4l0,0
	c-2.5-2.9-4.1-6.9-4.1-11.2c0-4.5,1.6-8.4,4.1-11C65.9,63.1,69.3,61.8,73,62z M73,70.1c3.4,0.1,6.1,3.5,6.1,7.4s-2.6,7.1-6.1,7.1
	c-3.5,0-6.4-3.2-6.4-7.4C66.7,73,69.5,69.9,73,70.1z M97.5,106.9L97.5,106.9 M97.5,48.9L97.5,48.9 M73,53.7
	c3.9,0.4,7.4,2.1,10.3,4.5c3-3.4,6-6.6,8.9-10c1.5-1.7,3.9-1.5,5.5,0.6c0,0,0,0,0.1,0.1V49c1.5,2.1,1.5,5.1,0,6.7
	c-2.7,3.2-5.6,6.6-8.5,10.1c1.7,3.5,2.7,7.6,2.7,12c0,4.4-1,8.4-2.7,11.8c2.9,3.5,5.7,7,8.5,10.5c1.5,1.9,1.5,4.9,0,6.7l0,0
	c0,0,0,0,0,0.1c0,0,0,0,0,0.1l0,0c-1.5,2-3.9,2.1-5.5,0.4c-2.9-3.4-5.9-6.9-8.9-10.5c-2.9,2.2-6.5,3.7-10.3,4c-3.9,0.1-7.7-1-11-3.2
	c-3.6,3.7-7.1,8-10.7,12.2c-2,2.2-5.2,2.5-7.2,0.5c-2.1-2.1-2.1-5.7,0-8.1c3.7-4.2,7.4-8.5,11-12.5c-2.1-3.9-3.4-8.4-3.4-13.3
	c0-4.9,1.2-9.5,3.4-13.1c-3.6-4.2-7.2-8.6-11-13.1c-2.1-2.4-2.1-6.1,0-8.1s5.4-1.6,7.2,0.9c3.6,4.5,7.1,8.9,10.7,13.1
	C65.2,54.3,68.9,53.4,73,53.7z M36.6,7c6.5,1.5,13,2.7,19.1,4.1c6,1.2,11.6,2.5,17.2,3.6c5.4,1.1,10.6,2.2,15.5,3.4
	c4.9,1.1,9.6,2.1,14.2,3c8.9,2,15.8,12.7,15.8,23.8c0,5.6,0,11.1,0,16.6c0,5.6,0,11.1,0,16.6c0,5.6,0,11.1,0,16.6
	c0,5.6,0,11.1,0,16.6c0,11.2-6.9,21.6-15.7,23.1c-4.6,0.7-9.3,1.6-14.2,2.2c-5,0.9-10.2,1.7-15.5,2.5c-5.6,0.9-11.2,1.9-17.2,2.7
	c-6.2,1-12.5,2.1-19.2,3.1c-14.2,2.5-26.6-8.1-26.6-23.7c0-7.6,0-15.2,0-23.1c0-7.6,0-15.3,0-23.1s0-15.2,0-23.1
	c0-7.6,0-15.3,0-23.1C10.1,14.3,22.4,4,36.6,7z"/>
<path d="M137.5,81V30.2h9.6V81H137.5z M145.6,57.5v-5.9h10.7c2.3,0,4.1-0.6,5.2-1.9c1.1-1.2,1.7-2.9,1.7-4.9s-0.6-3.7-1.7-4.9
	c-1.1-1.2-2.8-1.9-5.2-1.9h-10.7v-7.8h9.8c5.7,0,10,1.2,12.9,3.5c3,2.4,4.5,5.8,4.5,10.2v0.9c0,3.2-0.7,5.6-2.2,7.4
	c-1.5,1.9-3.5,3.2-6.1,4c-2.6,0.8-5.6,1.2-9,1.2H145.6z M145.6,81v-7.8h12.5c2.3,0,4-0.6,5.2-1.9c1.2-1.3,1.8-3,1.8-5.2
	s-0.6-3.9-1.8-5.1c-1.2-1.2-3-1.9-5.2-1.9h-12.5v-5.9h11.9c3.3,0,6.3,0.4,9,1.2c2.6,0.8,4.7,2.1,6.2,4c1.5,1.9,2.2,4.4,2.2,7.5v0.9
	c0,3-0.6,5.5-1.9,7.6c-1.3,2-3.2,3.7-5.8,4.8c-2.6,1.1-5.8,1.7-9.6,1.7C157.6,81,145.6,81,145.6,81z"/>
<path d="M198.5,81.9c-3.3,0-6.2-0.6-8.7-1.6c-2.5-1-4.6-2.5-6.4-4.3c-1.8-1.8-3.1-3.9-4-6.1c-0.9-2.3-1.3-4.6-1.3-7.1v-1.5
	c0-2.6,0.5-5,1.4-7.3c0.9-2.3,2.3-4.4,4.1-6.2c1.8-1.8,3.9-3.2,6.4-4.3c2.5-1,5.4-1.6,8.5-1.6s6,0.6,8.5,1.6c2.5,1,4.6,2.4,6.4,4.3
	c1.8,1.8,3.1,3.9,4,6.2c0.9,2.3,1.4,4.7,1.4,7.3v1.5c0,2.5-0.5,4.8-1.3,7.1c-0.9,2.3-2.2,4.4-4,6.1c-1.8,1.8-3.9,3.2-6.4,4.3
	C204.6,81.4,201.8,81.9,198.5,81.9z M198.5,73.8c2.3,0,4.3-0.6,5.9-1.6c1.6-1,2.8-2.4,3.6-4.2c0.8-1.8,1.2-3.8,1.2-6
	c0-2.3-0.5-4.3-1.3-6s-2-3.2-3.7-4.2s-3.5-1.6-5.8-1.6c-2.2,0-4.2,0.6-5.8,1.6c-1.7,1-2.9,2.4-3.7,4.2s-1.3,3.8-1.3,6s0.5,4.3,1.3,6
	c0.8,1.8,2,3.2,3.7,4.2C194.2,73.2,196.1,73.8,198.5,73.8z"/>
<path d="M224.1,80.6V43.3h7.5v16H231c0-3.8,0.5-7,1.5-9.5c1-2.5,2.5-4.5,4.5-5.8c1.9-1.3,4.5-1.9,7.4-1.9h0.4
	c4.5,0,7.8,1.4,10.1,4.3c2.3,2.9,3.4,7.1,3.4,12.8v21.3h-9.6V58.5c0-2.3-0.6-4.2-1.9-5.6c-1.3-1.4-3.1-2.1-5.4-2.1s-4.3,0.7-5.7,2.1
	c-1.5,1.5-2.1,3.3-2.1,5.8v21.9H224.1z"/>
<path d="M283.4,81.9c-3.3,0-6.2-0.6-8.7-1.6c-2.5-1-4.6-2.5-6.4-4.3c-1.8-1.8-3.1-3.9-4-6.1c-0.9-2.3-1.3-4.6-1.3-7.1v-1.5
	c0-2.6,0.5-5,1.4-7.3c0.9-2.3,2.3-4.4,4.1-6.2c1.8-1.8,3.9-3.2,6.4-4.3s5.4-1.6,8.5-1.6c3.2,0,6,0.6,8.5,1.6c2.5,1,4.6,2.4,6.4,4.3
	c1.8,1.8,3.1,3.9,4,6.2c0.9,2.3,1.4,4.7,1.4,7.3v1.5c0,2.5-0.5,4.8-1.3,7.1c-0.9,2.3-2.2,4.4-4,6.1c-1.8,1.8-3.9,3.2-6.4,4.3
	C289.5,81.4,286.6,81.9,283.4,81.9z M283.4,73.8c2.3,0,4.3-0.6,5.9-1.6c1.6-1,2.8-2.4,3.6-4.2c0.8-1.8,1.2-3.8,1.2-6
	c0-2.3-0.5-4.3-1.3-6s-2-3.2-3.7-4.2c-1.7-1-3.5-1.6-5.8-1.6c-2.2,0-4.2,0.6-5.8,1.6c-1.7,1-2.9,2.4-3.7,4.2s-1.3,3.8-1.3,6
	s0.5,4.3,1.3,6c0.8,1.8,2,3.2,3.7,4.2C279.1,73.2,281.1,73.8,283.4,73.8z"/>
<path d="M309,80.6V43.3h7.5v15.8h-0.2c0-5.4,1.1-9.4,3.4-12.2c2.3-2.8,5.7-4.1,10.1-4.1h1.4v8.3h-2.6c-3.2,0-5.7,0.8-7.4,2.6
	c-1.8,1.8-2.6,4.2-2.6,7.4v19.4C318.6,80.6,309,80.6,309,80.6z"/>
<path d="M347.2,81.7c-4.3,0-7.6-1.4-10-4.3c-2.3-2.9-3.5-7-3.5-12.6V43.2h9.6v22.4c0,2.3,0.6,4.1,1.9,5.5s3.1,2,5.2,2
	c2.2,0,4-0.7,5.4-2.1s2.1-3.3,2.1-5.8V43.2h9.6v37.4h-7.5V64.8h0.7c0,3.7-0.5,6.9-1.5,9.4c-0.9,2.5-2.4,4.5-4.4,5.7
	c-1.9,1.3-4.4,1.9-7.2,1.9H347.2z"/>
<path d="M375.3,80.6V43.3h7.5v16h-0.6c0-3.7,0.5-6.9,1.5-9.5c0.9-2.5,2.4-4.5,4.3-5.8c1.9-1.3,4.3-1.9,7.1-1.9h0.4
	c2.9,0,5.3,0.6,7.1,1.9c1.9,1.3,3.3,3.2,4.3,5.8c0.9,2.5,1.4,5.7,1.4,9.5h-2.4c0-3.7,0.5-6.9,1.5-9.5c1-2.5,2.4-4.5,4.4-5.8
	c1.9-1.3,4.3-1.9,7.1-1.9h0.4c2.9,0,5.3,0.6,7.2,1.9c1.9,1.3,3.3,3.2,4.4,5.8c1,2.5,1.5,5.7,1.5,9.5v21.2h-9.6V58.5
	c0-2.3-0.6-4.2-1.8-5.6c-1.2-1.4-2.9-2.1-5.1-2.1c-2.2,0-4,0.7-5.3,2.1c-1.3,1.5-1.9,3.3-1.9,5.8v21.9h-9.6V58.5
	c0-2.3-0.6-4.2-1.8-5.6s-2.9-2.1-5.1-2.1c-2.2,0-4,0.7-5.3,2.1c-1.3,1.5-1.9,3.3-1.9,5.8v21.9H375.3z"/>
<g>
	<path d="M156.3,130.6c-2.9,0-5.4-0.5-7.6-1.4c-2.2-1-4-2.3-5.5-3.9c-1.5-1.6-2.6-3.5-3.4-5.6c-0.7-2.1-1.1-4.2-1.1-6.5v-1
		c0-2.1,0.4-4.2,1.1-6.2c0.7-2.1,1.8-3.9,3.2-5.5c1.4-1.6,3.2-2.9,5.3-3.9c2.1-1,4.5-1.4,7.3-1.4c2.9,0,5.5,0.6,7.8,1.6
		c2.3,1.1,4.1,2.6,5.5,4.5c1.4,1.9,2.2,4.2,2.4,6.8h-6.6c-0.2-1.4-0.7-2.7-1.6-3.7c-0.9-1.1-1.9-1.8-3.2-2.4s-2.7-0.8-4.3-0.8
		s-3,0.2-4.2,0.8c-1.2,0.6-2.4,1.3-3.2,2.4c-0.9,1-1.6,2.2-2.1,3.6c-0.5,1.4-0.7,3-0.7,4.7c0,1.9,0.2,3.5,0.8,5
		c0.5,1.5,1.2,2.7,2.2,3.7c0.9,1.1,2.1,1.8,3.4,2.4c1.4,0.6,2.9,0.8,4.5,0.8c2.2,0,4.2-0.5,5.9-1.4s2.9-2.2,3.7-3.7l-1.1,5.3v-8.5h6
		v7.5c-1.4,2.2-3.4,3.9-5.9,5.1C162.5,130,159.4,130.6,156.3,130.6z M155.2,117.5v-4.9h18.4v4.9L155.2,117.5L155.2,117.5z"/>
	<path d="M176.3,129.7v-25h5v10.6h-0.1c0-3.6,0.7-6.3,2.3-8.2c1.6-1.9,3.8-2.7,6.8-2.7h0.9v5.6h-1.7c-2.2,0-3.8,0.6-5,1.7
		c-1.2,1.2-1.7,2.8-1.7,5v13C182.8,129.7,176.3,129.7,176.3,129.7z"/>
	<path d="M205.3,130.6c-2.2,0-4.2-0.4-5.9-1.1s-3.1-1.7-4.3-2.9c-1.2-1.2-2.1-2.6-2.7-4.1c-0.6-1.6-0.9-3.1-0.9-4.8v-1
		c0-1.7,0.3-3.4,0.9-4.9c0.6-1.6,1.6-2.9,2.7-4.2c1.2-1.2,2.6-2.2,4.3-2.9s3.6-1.1,5.7-1.1c2.1,0,4,0.4,5.7,1.1
		c1.7,0.7,3.1,1.6,4.3,2.9c1.2,1.2,2.1,2.6,2.7,4.2c0.6,1.6,0.9,3.2,0.9,4.9v1c0,1.7-0.3,3.2-0.9,4.8c-0.6,1.6-1.5,2.9-2.7,4.1
		c-1.2,1.2-2.6,2.2-4.3,2.9C209.4,130.2,207.5,130.6,205.3,130.6z M205.3,125.1c1.6,0,2.9-0.4,4-1.1c1.1-0.7,1.9-1.6,2.4-2.8
		c0.6-1.2,0.8-2.6,0.8-4c0-1.6-0.3-2.9-0.9-4c-0.6-1.2-1.4-2.1-2.5-2.8s-2.4-1.1-3.9-1.1c-1.5,0-2.8,0.4-3.9,1.1
		c-1.1,0.7-1.9,1.6-2.5,2.8c-0.6,1.2-0.9,2.6-0.9,4s0.3,2.9,0.9,4c0.6,1.2,1.4,2.1,2.5,2.8C202.4,124.7,203.7,125.1,205.3,125.1z"/>
	<path d="M231,130.4c-2.9,0-5.1-0.9-6.7-2.9c-1.6-1.9-2.4-4.7-2.4-8.5v-14.5h6.4v15.1c0,1.6,0.4,2.7,1.3,3.7
		c0.9,0.9,2.1,1.4,3.5,1.4c1.5,0,2.7-0.5,3.6-1.4c0.9-0.9,1.4-2.2,1.4-3.9v-14.8h6.4v25.1h-5V119h0.5c0,2.5-0.3,4.6-1,6.3
		c-0.6,1.7-1.6,3-2.9,3.8c-1.3,0.9-2.9,1.3-4.9,1.3H231z"/>
	<path d="M249.8,138.9v-34.2h5v10.8l-0.8-0.1c0.1-2.6,0.6-4.7,1.6-6.4c0.9-1.7,2.2-3,3.7-3.9c1.6-0.9,3.3-1.2,5.2-1.2
		c1.8,0,3.4,0.3,4.8,1c1.4,0.6,2.7,1.6,3.7,2.7c1.1,1.2,1.8,2.6,2.4,4c0.6,1.6,0.8,3.2,0.8,5v1c0,1.8-0.2,3.5-0.8,5
		c-0.6,1.6-1.3,2.9-2.4,4.1c-1.1,1.2-2.2,2.1-3.7,2.7c-1.4,0.7-3.1,1-4.9,1c-1.9,0-3.6-0.4-5.2-1.2c-1.6-0.8-2.8-2-3.7-3.6
		c-0.9-1.6-1.5-3.8-1.6-6.4l2.1,3.1V139L249.8,138.9L249.8,138.9z M263.1,125.2c1.4,0,2.6-0.3,3.6-1c1.1-0.7,1.8-1.6,2.4-2.9
		c0.6-1.2,0.9-2.6,0.9-4.1c0-1.6-0.3-3-0.9-4.2c-0.6-1.2-1.4-2.1-2.4-2.7c-1.1-0.7-2.2-1-3.6-1c-1.2,0-2.4,0.2-3.5,0.8
		c-1.1,0.6-1.9,1.4-2.6,2.4c-0.7,1.1-1,2.4-1,3.9v1.9c0,1.4,0.3,2.7,1,3.7c0.7,1,1.6,1.8,2.6,2.4
		C260.8,124.8,261.9,125.2,263.1,125.2z"/>
</g>
</svg>
